<svg width="47" height="47" viewBox="0 0 47 47" fill="none" xmlns="http://www.w3.org/2000/svg">
<g clip-path="url(#clip0_4764_898)">
<path d="M47 23.5006C47 36.4799 36.4787 47.0012 23.4994 47.0012C10.5213 47 0 36.4787 0 23.5006C0 10.5213 10.5213 0 23.5006 0C36.4799 0 47.0012 10.5213 47.0012 23.5006H47Z" fill="#C6A268"/>
<path d="M33.6281 13.5423H13.3732C11.3719 13.5423 9.74902 15.1651 9.74902 17.1653V29.8335C9.74902 31.8349 11.3719 33.4565 13.3732 33.4565H33.6281C35.6283 33.4565 37.2511 31.8349 37.2511 29.8335V17.1653C37.2511 15.1651 35.6283 13.5423 33.6281 13.5423ZM26.7535 24.3747L21.1208 27.1899C20.4703 27.5151 19.7061 27.0432 19.7061 26.3169V20.6866C19.7061 19.9604 20.4714 19.4884 21.1208 19.8125L26.7535 22.6277C27.4726 22.9872 27.4726 24.0151 26.7535 24.3747Z" fill="white"/>
</g>
<defs>
<clipPath id="clip0_4764_898">
<rect width="47" height="47" fill="white"/>
</clipPath>
</defs>
</svg>
